<svg width="513" height="90" viewBox="0 0 513 90" fill="none" xmlns="http://www.w3.org/2000/svg">
<path d="M45.5625 5.04889C45.5625 6.54332 44.9111 7.8863 43.875 8.81191V15.1464H60.75C63.4353 15.1464 66.0107 16.2103 67.9095 18.1039C69.8083 19.9976 70.875 22.5659 70.875 25.244V58.9025C70.875 61.5805 69.8083 64.1488 67.9095 66.0425C66.0107 67.9362 63.4353 69 60.75 69H20.25C17.5647 69 14.9893 67.9362 13.0905 66.0425C11.1917 64.1488 10.125 61.5805 10.125 58.9025V25.244C10.125 22.5659 11.1917 19.9976 13.0905 18.1039C14.9893 16.2103 17.5647 15.1464 20.25 15.1464H37.125V8.81191C36.4956 8.25046 36.017 7.5409 35.7328 6.74785C35.4486 5.9548 35.3678 5.10345 35.4979 4.27133C35.6279 3.4392 35.9646 2.65273 36.4773 1.98354C36.99 1.31434 37.6624 0.783679 38.4333 0.439873C39.2042 0.096066 40.0491 -0.0499631 40.891 0.0150825C41.7329 0.0801281 42.5452 0.354182 43.2538 0.812289C43.9624 1.2704 44.5448 1.898 44.9481 2.63796C45.3513 3.37792 45.5625 4.20672 45.5625 5.04889ZM20.25 21.8781C19.3549 21.8781 18.4965 22.2327 17.8635 22.864C17.2306 23.4952 16.875 24.3513 16.875 25.244V58.9025C16.875 59.7951 17.2306 60.6513 17.8635 61.2825C18.4965 61.9137 19.3549 62.2683 20.25 62.2683H60.75C61.6451 62.2683 62.5036 61.9137 63.1365 61.2825C63.7694 60.6513 64.125 59.7951 64.125 58.9025V25.244C64.125 24.3513 63.7694 23.4952 63.1365 22.864C62.5036 22.2327 61.6451 21.8781 60.75 21.8781H20.25ZM6.75 31.9757H0V52.1708H6.75V31.9757ZM74.25 31.9757H81V52.1708H74.25V31.9757ZM30.375 47.122C31.7177 47.122 33.0053 46.5901 33.9547 45.6432C34.9041 44.6964 35.4375 43.4122 35.4375 42.0732C35.4375 40.7342 34.9041 39.45 33.9547 38.5032C33.0053 37.5564 31.7177 37.0244 30.375 37.0244C29.0323 37.0244 27.7447 37.5564 26.7953 38.5032C25.8459 39.45 25.3125 40.7342 25.3125 42.0732C25.3125 43.4122 25.8459 44.6964 26.7953 45.6432C27.7447 46.5901 29.0323 47.122 30.375 47.122ZM50.625 47.122C51.9677 47.122 53.2553 46.5901 54.2047 45.6432C55.1541 44.6964 55.6875 43.4122 55.6875 42.0732C55.6875 40.7342 55.1541 39.45 54.2047 38.5032C53.2553 37.5564 51.9677 37.0244 50.625 37.0244C49.2823 37.0244 47.9947 37.5564 47.0453 38.5032C46.0959 39.45 45.5625 40.7342 45.5625 42.0732C45.5625 43.4122 46.0959 44.6964 47.0453 45.6432C47.9947 46.5901 49.2823 47.122 50.625 47.122Z" fill="white"/>
<path d="M497.924 75.0426V72H512.259V75.0426H506.916V89.4545H503.268V75.0426H497.924Z" fill="white"/>
<path d="M480.983 89.4545V72H484.673V79.2017H492.165V72H495.846V89.4545H492.165V82.2443H484.673V89.4545H480.983Z" fill="white"/>
<path d="M466.588 89.4545V72H478.349V75.0426H470.278V79.2017H477.744V82.2443H470.278V86.4119H478.383V89.4545H466.588Z" fill="white"/>
<path d="M450.191 75.0426V72H464.527V75.0426H459.183V89.4545H455.535V75.0426H450.191Z" fill="white"/>
<path d="M448.51 78.1108H444.777C444.709 77.6278 444.57 77.1989 444.359 76.8239C444.149 76.4432 443.879 76.1193 443.55 75.8523C443.22 75.5852 442.839 75.3807 442.408 75.2386C441.982 75.0966 441.518 75.0256 441.018 75.0256C440.115 75.0256 439.328 75.25 438.658 75.6989C437.987 76.142 437.467 76.7898 437.098 77.642C436.729 78.4886 436.544 79.517 436.544 80.7273C436.544 81.9716 436.729 83.017 437.098 83.8636C437.473 84.7102 437.996 85.3494 438.666 85.7812C439.337 86.2131 440.112 86.429 440.993 86.429C441.487 86.429 441.945 86.3636 442.365 86.2329C442.791 86.1023 443.169 85.9119 443.499 85.6619C443.828 85.4062 444.101 85.0966 444.317 84.7329C444.538 84.3693 444.692 83.9545 444.777 83.4886L448.51 83.5057C448.413 84.3068 448.172 85.0795 447.785 85.8239C447.405 86.5625 446.891 87.2244 446.243 87.8096C445.601 88.3892 444.834 88.8494 443.942 89.1903C443.055 89.5256 442.053 89.6932 440.933 89.6932C439.376 89.6932 437.984 89.3409 436.757 88.6364C435.535 87.9318 434.57 86.9119 433.859 85.5767C433.155 84.2415 432.803 82.625 432.803 80.7273C432.803 78.8239 433.16 77.2045 433.876 75.8693C434.592 74.5341 435.564 73.517 436.791 72.8182C438.018 72.1136 439.399 71.7614 440.933 71.7614C441.945 71.7614 442.882 71.9034 443.746 72.1875C444.615 72.4716 445.385 72.8864 446.055 73.4318C446.726 73.9716 447.271 74.6335 447.692 75.4176C448.118 76.2017 448.391 77.0994 448.51 78.1108Z" fill="white"/>
<path d="M415.761 72H419.443V82.9773H419.588L427.13 72H430.36V89.4545H426.67V78.4688H426.542L418.957 89.4545H415.761V72Z" fill="white"/>
<path d="M413.415 78.1108H409.682C409.614 77.6278 409.474 77.1989 409.264 76.8239C409.054 76.4432 408.784 76.1193 408.454 75.8523C408.125 75.5852 407.744 75.3807 407.312 75.2386C406.886 75.0966 406.423 75.0256 405.923 75.0256C405.02 75.0256 404.233 75.25 403.562 75.6989C402.892 76.142 402.372 76.7898 402.003 77.642C401.633 78.4886 401.449 79.517 401.449 80.7273C401.449 81.9716 401.633 83.017 402.003 83.8636C402.378 84.7102 402.9 85.3494 403.571 85.7812C404.241 86.2131 405.017 86.429 405.898 86.429C406.392 86.429 406.849 86.3636 407.27 86.2329C407.696 86.1023 408.074 85.9119 408.403 85.6619C408.733 85.4062 409.006 85.0966 409.221 84.7329C409.443 84.3693 409.596 83.9545 409.682 83.4886L413.415 83.5057C413.318 84.3068 413.077 85.0795 412.69 85.8239C412.31 86.5625 411.795 87.2244 411.148 87.8096C410.506 88.3892 409.739 88.8494 408.846 89.1903C407.96 89.5256 406.957 89.6932 405.838 89.6932C404.281 89.6932 402.889 89.3409 401.662 88.6364C400.44 87.9318 399.474 86.9119 398.764 85.5767C398.06 84.2415 397.707 82.625 397.707 80.7273C397.707 78.8239 398.065 77.2045 398.781 75.8693C399.497 74.5341 400.469 73.517 401.696 72.8182C402.923 72.1136 404.304 71.7614 405.838 71.7614C406.849 71.7614 407.787 71.9034 408.65 72.1875C409.52 72.4716 410.29 72.8864 410.96 73.4318C411.631 73.9716 412.176 74.6335 412.596 75.4176C413.023 76.2017 413.295 77.0994 413.415 78.1108Z" fill="white"/>
<path d="M395.668 78.1108H391.935C391.867 77.6278 391.727 77.1989 391.517 76.8239C391.307 76.4432 391.037 76.1193 390.708 75.8523C390.378 75.5852 389.997 75.3807 389.565 75.2386C389.139 75.0966 388.676 75.0256 388.176 75.0256C387.273 75.0256 386.486 75.25 385.815 75.6989C385.145 76.142 384.625 76.7898 384.256 77.642C383.887 78.4886 383.702 79.517 383.702 80.7273C383.702 81.9716 383.887 83.017 384.256 83.8636C384.631 84.7102 385.154 85.3494 385.824 85.7812C386.494 86.2131 387.27 86.429 388.151 86.429C388.645 86.429 389.102 86.3636 389.523 86.2329C389.949 86.1023 390.327 85.9119 390.656 85.6619C390.986 85.4062 391.259 85.0966 391.475 84.7329C391.696 84.3693 391.85 83.9545 391.935 83.4886L395.668 83.5057C395.571 84.3068 395.33 85.0795 394.943 85.8239C394.563 86.5625 394.048 87.2244 393.401 87.8096C392.759 88.3892 391.992 88.8494 391.1 89.1903C390.213 89.5256 389.21 89.6932 388.091 89.6932C386.534 89.6932 385.142 89.3409 383.915 88.6364C382.693 87.9318 381.727 86.9119 381.017 85.5767C380.313 84.2415 379.96 82.625 379.96 80.7273C379.96 78.8239 380.318 77.2045 381.034 75.8693C381.75 74.5341 382.722 73.517 383.949 72.8182C385.176 72.1136 386.557 71.7614 388.091 71.7614C389.102 71.7614 390.04 71.9034 390.904 72.1875C391.773 72.4716 392.543 72.8864 393.213 73.4318C393.884 73.9716 394.429 74.6335 394.85 75.4176C395.276 76.2017 395.548 77.0994 395.668 78.1108Z" fill="white"/>
<path d="M366.443 89.4545H362.488L368.514 72H373.27L379.287 89.4545H375.332L370.96 75.9886H370.824L366.443 89.4545ZM366.196 82.5938H375.537V85.4744H366.196V82.5938Z" fill="white"/>
<path d="M340.831 72.0001H344.513V82.9773H344.658L352.201 72.0001H355.431V89.4546H351.74V78.4688H351.612L344.027 89.4546H340.831V72.0001ZM349.831 67.4319H352.362C352.357 68.466 351.973 69.2984 351.212 69.929C350.456 70.5597 349.434 70.8751 348.144 70.8751C346.848 70.8751 345.823 70.5597 345.067 69.929C344.311 69.2984 343.934 68.466 343.934 67.4319H346.448C346.442 67.8239 346.567 68.1762 346.823 68.4887C347.084 68.8012 347.524 68.9575 348.144 68.9575C348.746 68.9575 349.178 68.804 349.439 68.4972C349.701 68.1904 349.831 67.8353 349.831 67.4319Z" fill="white"/>
<path d="M322.115 78.4517H326.274C327.66 78.4517 328.854 78.6761 329.854 79.125C330.859 79.5682 331.635 80.196 332.18 81.0085C332.726 81.821 332.996 82.7784 332.99 83.8807C332.996 84.9773 332.726 85.946 332.18 86.7869C331.635 87.6222 330.859 88.2756 329.854 88.7472C328.854 89.2187 327.66 89.4545 326.274 89.4545H319.754V72H323.436V86.4886H326.274C326.939 86.4886 327.498 86.3693 327.953 86.1307C328.408 85.8864 328.751 85.5653 328.984 85.1676C329.223 84.7642 329.339 84.3239 329.334 83.8466C329.339 83.1534 329.078 82.5682 328.55 82.0909C328.027 81.608 327.268 81.3665 326.274 81.3665H322.115V78.4517ZM338.095 72V89.4545H334.413V72H338.095Z" fill="white"/>
<path d="M302.08 89.4545V72H305.77V79.2017H313.262V72H316.943V89.4545H313.262V82.2443H305.77V89.4545H302.08Z" fill="white"/>
<path d="M288.566 78.4517H292.726C294.112 78.4517 295.305 78.6761 296.305 79.125C297.311 79.5682 298.086 80.196 298.632 81.0085C299.177 81.821 299.447 82.7784 299.441 83.8807C299.447 84.9773 299.177 85.946 298.632 86.7869C298.086 87.6222 297.311 88.2756 296.305 88.7472C295.305 89.2187 294.112 89.4545 292.726 89.4545H286.206V72H289.888V86.4886H292.726C293.39 86.4886 293.95 86.3693 294.405 86.1307C294.859 85.8864 295.203 85.5653 295.436 85.1676C295.674 84.7642 295.791 84.3239 295.785 83.8466C295.791 83.1534 295.53 82.5682 295.001 82.0909C294.478 81.608 293.72 81.3665 292.726 81.3665H288.566V78.4517Z" fill="white"/>
<path d="M267.96 89.4545V86.4886L268.455 86.446C269.091 86.3949 269.605 86.1534 269.997 85.7216C270.389 85.2841 270.682 84.5881 270.875 83.6335C271.074 82.6733 271.202 81.3835 271.259 79.7642L271.548 72H283.395V89.4545H279.807V74.9574H274.974L274.702 81.0341C274.611 82.9886 274.378 84.5852 274.003 85.8239C273.634 87.0625 273.043 87.9773 272.23 88.5682C271.423 89.1591 270.318 89.4545 268.915 89.4545H267.96Z" fill="white"/>
<path d="M254.262 89.4545H250.307L256.333 72H261.088L267.105 89.4545H263.151L258.779 75.9886H258.642L254.262 89.4545ZM254.014 82.5938H263.355V85.4744H254.014V82.5938Z" fill="white"/>
<path d="M239.116 89.6932V86.6932H240.062C240.534 86.6932 240.915 86.6364 241.204 86.5227C241.494 86.4034 241.724 86.2301 241.895 86.0028C242.071 85.7699 242.219 85.4801 242.338 85.1335L242.551 84.5625L236.21 72H240.028L244.136 80.5909L247.571 72H251.338L245.321 86.0284C245.031 86.6761 244.687 87.2784 244.29 87.8352C243.898 88.392 243.395 88.8409 242.781 89.1818C242.167 89.5227 241.383 89.6932 240.429 89.6932H239.116Z" fill="white"/>
<path d="M220.837 75.0426V72H235.172V75.0426H229.828V89.4545H226.181V75.0426H220.837Z" fill="white"/>
<path d="M206.262 89.4545V72H213.149C214.473 72 215.601 72.2528 216.532 72.7585C217.464 73.2585 218.174 73.9545 218.663 74.8466C219.157 75.733 219.405 76.7557 219.405 77.9148C219.405 79.0739 219.155 80.0966 218.655 80.983C218.155 81.8693 217.43 82.5597 216.481 83.054C215.538 83.5483 214.396 83.7955 213.055 83.7955H208.666V80.8381H212.459C213.169 80.8381 213.754 80.7159 214.214 80.4716C214.68 80.2216 215.027 79.8778 215.254 79.4403C215.487 78.9972 215.603 78.4886 215.603 77.9148C215.603 77.3352 215.487 76.8295 215.254 76.3977C215.027 75.9602 214.68 75.6222 214.214 75.3835C213.748 75.1392 213.157 75.017 212.441 75.017H209.953V89.4545H206.262Z" fill="white"/>
<path d="M188.914 72H192.596V82.9773H192.741L200.283 72H203.513V89.4545H199.823V78.4688H199.695L192.11 89.4545H188.914V72Z" fill="white"/>
<path d="M173.347 89.4545V72H180.336C181.62 72 182.691 72.1903 183.549 72.571C184.407 72.9517 185.051 73.4801 185.483 74.1562C185.915 74.8267 186.131 75.5994 186.131 76.4744C186.131 77.1563 185.995 77.7557 185.722 78.2727C185.449 78.7841 185.074 79.2045 184.597 79.5341C184.125 79.858 183.586 80.0881 182.978 80.2244V80.3949C183.642 80.4233 184.264 80.6108 184.844 80.9574C185.429 81.304 185.904 81.7898 186.267 82.4148C186.631 83.0341 186.813 83.7727 186.813 84.6307C186.813 85.5568 186.583 86.3835 186.122 87.1108C185.668 87.8324 184.995 88.4034 184.103 88.8239C183.211 89.2443 182.111 89.4545 180.804 89.4545H173.347ZM177.037 86.4375H180.046C181.074 86.4375 181.824 86.2415 182.296 85.8494C182.767 85.4517 183.003 84.9233 183.003 84.2642C183.003 83.7813 182.887 83.3551 182.654 82.9858C182.421 82.6165 182.088 82.3267 181.657 82.1165C181.23 81.9062 180.722 81.8011 180.131 81.8011H177.037V86.4375ZM177.037 79.304H179.773C180.279 79.304 180.728 79.2159 181.12 79.0398C181.517 78.858 181.83 78.6023 182.057 78.2727C182.29 77.9432 182.407 77.5483 182.407 77.0881C182.407 76.4574 182.182 75.9489 181.733 75.5625C181.29 75.1761 180.659 74.983 179.841 74.983H177.037V79.304Z" fill="white"/>
<path d="M143.919 72H147.524V86.4886H152.536V72H156.124V86.4886H161.075V72H164.663V89.4545H143.919V72Z" fill="white"/>
<path d="M128.576 89.4545H124.621L130.647 72H135.402L141.419 89.4545H137.465L133.093 75.9886H132.956L128.576 89.4545ZM128.329 82.5938H137.669V85.4744H128.329V82.5938Z" fill="white"/>
<path d="M110 89.4545V72H116.989C118.273 72 119.344 72.1903 120.202 72.571C121.06 72.9517 121.705 73.4801 122.136 74.1562C122.568 74.8267 122.784 75.5994 122.784 76.4744C122.784 77.1563 122.648 77.7557 122.375 78.2727C122.102 78.7841 121.727 79.2045 121.25 79.5341C120.778 79.858 120.239 80.0881 119.631 80.2244V80.3949C120.295 80.4233 120.918 80.6108 121.497 80.9574C122.082 81.304 122.557 81.7898 122.92 82.4148C123.284 83.0341 123.466 83.7727 123.466 84.6307C123.466 85.5568 123.236 86.3835 122.776 87.1108C122.321 87.8324 121.648 88.4034 120.756 88.8239C119.864 89.2443 118.764 89.4545 117.457 89.4545H110ZM113.69 86.4375H116.699C117.727 86.4375 118.477 86.2415 118.949 85.8494C119.42 85.4517 119.656 84.9233 119.656 84.2642C119.656 83.7813 119.54 83.3551 119.307 82.9858C119.074 82.6165 118.741 82.3267 118.31 82.1165C117.884 81.9062 117.375 81.8011 116.784 81.8011H113.69V86.4375ZM113.69 79.304H116.426C116.932 79.304 117.381 79.2159 117.773 79.0398C118.17 78.858 118.483 78.6023 118.71 78.2727C118.943 77.9432 119.06 77.5483 119.06 77.0881C119.06 76.4574 118.835 75.9489 118.386 75.5625C117.943 75.1761 117.312 74.983 116.494 74.983H113.69V79.304Z" fill="white"/>
<path d="M147.09 57.4545H141.323L150.11 32H157.046L165.821 57.4545H160.054L153.678 37.8168H153.479L147.09 57.4545ZM146.73 47.4492H160.352V51.6502H146.73V47.4492Z" fill="white"/>
<path d="M124.804 32L130.956 51.3395H131.192L137.357 32H143.323L134.548 57.4545H127.613L118.825 32H124.804Z" fill="white"/>
<path d="M116.077 32V57.4545H110.695V32H116.077Z" fill="white"/>
<path d="M283.034 0H289.062L294.867 10.9624H295.115L300.92 0H306.948L297.663 16.456V25.4545H292.319V16.456L283.034 0Z" fill="white"/>
<path d="M262.917 25.4545V0H272.959C274.882 0 276.522 0.343869 277.881 1.03161C279.248 1.71106 280.288 2.67637 281.001 3.92756C281.722 5.17045 282.082 6.63293 282.082 8.31499C282.082 10.0053 281.718 11.4595 280.988 12.6776C280.259 13.8873 279.203 14.8153 277.819 15.4616C276.443 16.108 274.778 16.4311 272.823 16.4311H266.098V12.1058H271.952C272.98 12.1058 273.833 11.965 274.513 11.6832C275.192 11.4015 275.698 10.9789 276.029 10.4155C276.369 9.85204 276.539 9.15187 276.539 8.31499C276.539 7.46982 276.369 6.75722 276.029 6.1772C275.698 5.59718 275.188 5.15802 274.5 4.85973C273.821 4.55315 272.963 4.39986 271.928 4.39986H268.298V25.4545H262.917ZM276.663 13.8707L282.989 25.4545H277.048L270.859 13.8707H276.663Z" fill="white"/>
<path d="M240.248 25.4545V0H250.29C252.213 0 253.853 0.343869 255.212 1.03161C256.58 1.71106 257.619 2.67637 258.332 3.92756C259.053 5.17045 259.413 6.63293 259.413 8.31499C259.413 10.0053 259.049 11.4595 258.32 12.6776C257.59 13.8873 256.534 14.8153 255.15 15.4616C253.775 16.108 252.109 16.4311 250.154 16.4311H243.43V12.1058H249.284C250.311 12.1058 251.165 11.965 251.844 11.6832C252.524 11.4015 253.029 10.9789 253.36 10.4155C253.7 9.85204 253.87 9.15187 253.87 8.31499C253.87 7.46982 253.7 6.75722 253.36 6.1772C253.029 5.59718 252.519 5.15802 251.832 4.85973C251.152 4.55315 250.295 4.39986 249.259 4.39986H245.63V25.4545H240.248ZM253.994 13.8707L260.321 25.4545H254.38L248.19 13.8707H253.994Z" fill="white"/>
<path d="M219.117 25.4545V0H236.269V4.43714H224.499V10.5025H235.387V14.9396H224.499V21.0174H236.319V25.4545H219.117Z" fill="white"/>
<path d="M196.278 25.4545V0H206.469C208.342 0 209.904 0.277581 211.155 0.832742C212.406 1.3879 213.347 2.1585 213.976 3.14453C214.606 4.12228 214.921 5.24917 214.921 6.52521C214.921 7.51953 214.722 8.3937 214.324 9.14773C213.927 9.89347 213.38 10.5066 212.684 10.9872C211.996 11.4595 211.209 11.7951 210.322 11.994V12.2425C211.292 12.284 212.199 12.5574 213.044 13.0629C213.898 13.5683 214.59 14.2768 215.12 15.1882C215.65 16.0914 215.915 17.1686 215.915 18.4197C215.915 19.7704 215.58 20.976 214.909 22.0366C214.246 23.0889 213.264 23.9216 211.963 24.5348C210.662 25.148 209.059 25.4545 207.153 25.4545H196.278ZM201.659 21.0547H206.047C207.546 21.0547 208.64 20.7688 209.328 20.1971C210.016 19.6171 210.36 18.8465 210.36 17.8853C210.36 17.181 210.19 16.5595 209.85 16.021C209.51 15.4824 209.026 15.0598 208.396 14.7532C207.774 14.4466 207.033 14.2933 206.171 14.2933H201.659V21.0547ZM201.659 10.6516H205.649C206.386 10.6516 207.041 10.5232 207.613 10.2663C208.193 10.0012 208.649 9.62831 208.98 9.14773C209.32 8.66714 209.49 8.09126 209.49 7.4201C209.49 6.50036 209.162 5.75876 208.508 5.19531C207.861 4.63187 206.942 4.35014 205.748 4.35014H201.659V10.6516Z" fill="white"/>
<path d="M176.604 0L181.737 8.67543H181.936L187.094 0H193.172L185.404 12.7273L193.346 25.4545H187.156L181.936 16.7667H181.737L176.517 25.4545H170.352L178.319 12.7273L170.502 0H176.604Z" fill="white"/>
<path d="M150.427 25.4545V0H167.579V4.43714H155.809V10.5025H166.697V14.9396H155.809V21.0174H167.629V25.4545H150.427Z" fill="white"/>
<path d="M130.869 25.4545V0H136.251V21.0174H147.163V25.4545H130.869Z" fill="white"/>
<path d="M110.695 25.4545V0H127.549V4.43714H116.077V10.5025H126.43V14.9396H116.077V25.4545H110.695Z" fill="white"/>
</svg>
