<svg width="20" height="20" viewBox="0 0 20 20" fill="none" xmlns="http://www.w3.org/2000/svg">
<path d="M10 5.58009H0C0 2.49826 2.49446 0 5.5716 0H10V5.58009Z" fill="#710FD8"/>
<path d="M19.9972 5.58009H11.4928C11.4928 2.49826 13.9873 0 17.0644 0H20V5.58009H19.9972Z" fill="#25D838"/>
<path d="M14.4284 12.7914H11.4928V7.2113H19.9972C19.9972 10.2931 17.5028 12.7914 14.4284 12.7914Z" fill="#25D838"/>
<path d="M14.4283 20H7.11145V14.4199H19.9971C19.9971 17.5045 17.5027 20 14.4283 20Z" fill="#710FD8"/>
<path d="M10 7.2113H0V11.1435V12.7886V14.6866C0 17.6212 2.37514 19.9999 5.30522 19.9999H5.5716V12.7886H10V7.2113V7.2113Z" fill="#710FD8"/>
</svg>
