<svg width="293" height="84" viewBox="0 0 293 84" fill="none" xmlns="http://www.w3.org/2000/svg">
<path d="M132.395 70.7612H126.628L135.415 45.3066H142.351L151.126 70.7612H145.359L138.983 51.1234H138.784L132.395 70.7612ZM132.035 60.7558H145.657V64.9568H132.035V60.7558Z" fill="#303434"/>
<path d="M110.109 45.3066L116.262 64.6461H116.498L122.663 45.3066H128.629L119.854 70.7612H112.918L104.131 45.3066H110.109Z" fill="#303434"/>
<path d="M101.383 45.3066V70.7612H96.001V45.3066H101.383Z" fill="#303434"/>
<path d="M268.339 13.3066H274.367L280.172 24.269H280.42L286.225 13.3066H292.253L282.968 29.7626V38.7612H277.624V29.7626L268.339 13.3066Z" fill="#303434"/>
<path d="M248.222 38.7612V13.3066H258.264C260.187 13.3066 261.827 13.6505 263.186 14.3383C264.553 15.0177 265.593 15.983 266.306 17.2342C267.027 18.4771 267.387 19.9396 267.387 21.6216C267.387 23.3119 267.023 24.7661 266.293 25.9842C265.564 27.1939 264.508 28.122 263.124 28.7683C261.749 29.4146 260.083 29.7377 258.128 29.7377H251.403V25.4124H257.258C258.285 25.4124 259.138 25.2716 259.818 24.9898C260.497 24.7081 261.003 24.2855 261.334 23.7221C261.674 23.1586 261.844 22.4585 261.844 21.6216C261.844 20.7765 261.674 20.0639 261.334 19.4838C261.003 18.9038 260.493 18.4647 259.805 18.1664C259.126 17.8598 258.268 17.7065 257.233 17.7065H253.603V38.7612H248.222ZM261.968 27.1773L268.294 38.7612H262.353L256.164 27.1773H261.968Z" fill="#303434"/>
<path d="M225.553 38.7612V13.3066H235.596C237.518 13.3066 239.158 13.6505 240.517 14.3383C241.885 15.0177 242.924 15.983 243.637 17.2342C244.358 18.4771 244.718 19.9396 244.718 21.6216C244.718 23.3119 244.354 24.7661 243.625 25.9842C242.895 27.1939 241.839 28.122 240.455 28.7683C239.08 29.4146 237.414 29.7377 235.459 29.7377H228.735V25.4124H234.589C235.616 25.4124 236.47 25.2716 237.149 24.9898C237.829 24.7081 238.334 24.2855 238.665 23.7221C239.005 23.1586 239.175 22.4585 239.175 21.6216C239.175 20.7765 239.005 20.0639 238.665 19.4838C238.334 18.9038 237.824 18.4647 237.137 18.1664C236.457 17.8598 235.6 17.7065 234.564 17.7065H230.935V38.7612H225.553ZM239.299 27.1773L245.626 38.7612H239.685L233.495 27.1773H239.299Z" fill="#303434"/>
<path d="M204.422 38.7612V13.3066H221.574V17.7438H209.804V23.8091H220.692V28.2462H209.804V34.324H221.624V38.7612H204.422Z" fill="#303434"/>
<path d="M181.583 38.7612V13.3066H191.774C193.647 13.3066 195.209 13.5842 196.46 14.1394C197.711 14.6945 198.652 15.4651 199.281 16.4512C199.911 17.4289 200.226 18.5558 200.226 19.8319C200.226 20.8262 200.027 21.7003 199.629 22.4544C199.232 23.2001 198.685 23.8132 197.989 24.2938C197.301 24.7661 196.514 25.1017 195.627 25.3006V25.5492C196.597 25.5906 197.504 25.864 198.349 26.3695C199.203 26.8749 199.895 27.5834 200.425 28.4948C200.955 29.398 201.22 30.4752 201.22 31.7264C201.22 33.077 200.885 34.2826 200.214 35.3432C199.551 36.3955 198.569 37.2282 197.268 37.8414C195.967 38.4546 194.364 38.7612 192.458 38.7612H181.583ZM186.964 34.3613H191.352C192.852 34.3613 193.945 34.0754 194.633 33.5037C195.321 32.9237 195.665 32.1531 195.665 31.1919C195.665 30.4876 195.495 29.8662 195.155 29.3276C194.815 28.789 194.331 28.3664 193.701 28.0598C193.079 27.7532 192.338 27.5999 191.476 27.5999H186.964V34.3613ZM186.964 23.9582H190.954C191.691 23.9582 192.346 23.8298 192.918 23.5729C193.498 23.3078 193.954 22.9349 194.285 22.4544C194.625 21.9738 194.795 21.3979 194.795 20.7267C194.795 19.807 194.467 19.0654 193.813 18.502C193.166 17.9385 192.247 17.6568 191.053 17.6568H186.964V23.9582Z" fill="#303434"/>
<path d="M161.909 13.3066L167.042 21.9821H167.241L172.399 13.3066H178.477L170.709 26.0339L178.651 38.7612H172.461L167.241 30.0733H167.042L161.822 38.7612H155.657L163.624 26.0339L155.807 13.3066H161.909Z" fill="#303434"/>
<path d="M135.732 38.7612V13.3066H152.884V17.7438H141.114V23.8091H152.002V28.2462H141.114V34.324H152.934V38.7612H135.732Z" fill="#303434"/>
<path d="M116.174 38.7612V13.3066H121.556V34.324H132.468V38.7612H116.174Z" fill="#303434"/>
<path d="M96.001 38.7612V13.3066H112.855V17.7438H101.383V23.8091H111.736V28.2462H101.383V38.7612H96.001Z" fill="#303434"/>
<path d="M33.4095 20.0471C34.23 20.7296 34.6314 21.4508 35.0543 22.4035C35.1482 22.6089 35.1482 22.6089 35.2441 22.8184C35.912 24.2921 36.5331 25.7861 37.1515 27.2811C37.4017 27.8709 37.6684 28.4529 37.9369 29.0346C38.0757 29.3794 38.0757 29.3794 38.0757 29.7527C38.1988 29.7527 38.322 29.7527 38.4489 29.7527C38.7278 29.2074 38.9793 28.6553 39.2211 28.0926C39.2974 27.9155 39.3738 27.7384 39.4525 27.556C39.5332 27.3685 39.614 27.1811 39.6971 26.988C40.3486 25.4814 41.0155 23.9851 41.7204 22.5027C41.9209 22.0728 42.1065 21.6453 42.2861 21.2071C42.5552 20.607 42.5552 20.607 42.9518 20.2454C43.8217 19.9239 44.6639 19.8667 45.5473 20.1827C46.2783 20.5637 46.7321 20.9616 47.0347 21.7269C47.1219 22.7602 46.9102 23.431 46.4164 24.3166C44.9025 27.1874 43.5388 30.203 42.5552 33.299C42.489 33.4968 42.4228 33.6945 42.3547 33.8983C41.188 37.6195 41.1645 41.3784 41.2486 45.2444C41.2546 45.5399 41.2605 45.8354 41.2664 46.1309C41.2853 47.0526 41.3071 47.9741 41.3303 48.8956C41.3357 49.1181 41.3357 49.1181 41.3413 49.345C41.3519 49.7671 41.3639 50.1891 41.3762 50.6112C41.3831 50.8543 41.3899 51.0975 41.397 51.348C41.4274 51.8366 41.4778 52.2458 41.6219 52.7102C42.3842 51.9581 43.1196 51.1836 43.85 50.4005C43.9611 50.2821 44.0721 50.1637 44.1865 50.0418C44.7261 49.4639 45.2545 48.8809 45.7646 48.2767C46.1574 47.8142 46.5581 47.398 47.023 47.0059C47.1491 46.8983 47.2752 46.7908 47.4051 46.68C47.5292 46.5758 47.6534 46.4716 47.7813 46.3643C48.011 46.1702 48.2404 45.9757 48.4695 45.781C48.5665 45.6997 48.6635 45.6183 48.7634 45.5346C49.2001 45.1439 49.6071 44.7257 50.021 44.3111C53.3962 41.133 53.3962 41.133 54.5005 40.7649C54.5005 40.6417 54.5005 40.5185 54.5005 40.3916C57.158 37.9652 57.158 37.9652 58.4201 37.9652C59.1632 38.2138 59.7483 38.5364 60.2866 39.1084C60.6268 40.0865 60.6417 41.0809 60.2633 42.0481C59.9183 42.4391 59.5718 42.6922 59.1288 42.9631C58.7109 43.2474 58.3509 43.5746 57.9768 43.9145C57.3374 44.4948 56.6839 45.0222 55.9791 45.5207C55.5102 45.8915 55.1079 46.3127 54.6872 46.7375C54.3458 47.0609 54.0015 47.381 53.657 47.7012C48.0901 52.8764 43.3318 58.5645 42.6893 66.4171C42.5564 71.1145 43.9696 76.287 47.0201 79.9504C48.2386 81.1552 49.6447 82.1214 51.1409 82.947C51.1409 83.1933 51.1409 83.4397 51.1409 83.6936C42.7642 83.6936 34.3875 83.6936 25.757 83.6936C25.9436 82.7603 25.9436 82.7603 26.2506 82.4964C26.3841 82.4218 26.5176 82.3472 26.6552 82.2704C30.4107 79.9427 32.3914 76.2475 33.4379 72.0529C33.4901 71.8292 33.5423 71.6054 33.5961 71.3749C33.6387 71.1973 33.6813 71.0198 33.7252 70.8368C34.8232 65.4468 33.2107 60.0213 30.2365 55.5099C29.7006 54.803 29.1346 54.1293 28.5567 53.4568C27.9967 52.764 28.2767 53.0836 27.9967 52.7103C27.8715 52.5433 27.7168 52.4304 27.6235 52.337C26.6902 51.3149 26.7835 51.4038 26.5036 50.9371C26.2572 50.814 26.1975 50.5974 25.9436 50.4705C25.9436 50.3473 25.8503 50.4108 25.8503 50.2839C25.6836 50.2086 25.7404 50.0807 25.5703 50.0039C25.1593 49.782 24.9362 49.5037 24.613 49.1698C24.5085 49.0632 24.404 48.9566 24.2963 48.8468C24.1893 48.7359 24.0824 48.625 23.9722 48.5107C23.7585 48.2906 23.5444 48.0709 23.3299 47.8516C23.2359 47.7543 23.1419 47.6569 23.0451 47.5567C22.7414 47.2554 22.8348 47.2554 22.304 46.9242C22.304 46.8011 22.1174 46.7712 22.1174 46.6443C21.9521 46.568 22.006 46.5355 21.8374 46.4576C21.4352 46.2441 21.1737 45.9575 20.8327 45.6578C20.7189 45.5588 20.6051 45.4598 20.4879 45.3577C20.3712 45.2549 20.2545 45.152 20.1343 45.0461C19.9008 44.8413 19.667 44.6369 19.4329 44.4329C19.3301 44.3424 19.2273 44.2519 19.1215 44.1587C18.8492 43.9199 18.8492 43.9199 18.4778 43.7512C18.4778 43.628 18.3844 43.5646 18.2911 43.4713C18.1276 43.3962 18.1779 43.3612 18.0112 43.2846C17.5906 43.0607 17.4021 42.7563 17.0429 42.4447C16.9306 42.3484 16.8182 42.2522 16.7024 42.153C16.2115 41.6789 16.1987 41.2849 16.1797 40.6249C16.1942 39.713 16.3282 39.1979 16.9846 38.5251C17.6946 38.1006 18.2046 37.9015 19.0253 38.0928C19.6417 38.3574 20.0576 38.6607 20.5659 39.0967C20.7434 39.2471 20.921 39.3975 21.1039 39.5524C21.2844 39.7061 21.4648 39.8599 21.6508 40.0183C21.9963 40.2989 22.3424 40.5789 22.689 40.8582C23.359 41.4054 24.0093 41.9671 24.6488 42.5497C25.6897 43.4978 26.7864 44.3682 27.8998 45.2291C28.4021 45.6442 28.8468 46.0854 29.3033 46.5509C29.5744 46.8183 29.8459 47.0854 30.1177 47.3522C30.4256 47.6567 30.7335 47.9612 31.0414 48.2657C31.1938 48.415 31.3463 48.5643 31.5033 48.7181C32.4074 49.615 33.2312 50.5363 34.0068 51.5468C34.3437 51.9648 34.7033 52.3377 35.0893 52.7102C37.0693 42.7435 34.7935 32.4243 30.0377 23.6333C29.7218 22.8852 29.6892 22.1425 29.8632 21.3536C30.7017 20.1945 32.0118 19.4869 33.4095 20.0471Z" fill="#303434"/>
<path d="M22.491 8.88343C22.7731 8.99082 23.0531 9.10381 23.331 9.22173C23.4787 9.28308 23.6264 9.34443 23.7786 9.40764C26.0506 10.4433 27.9755 12.1475 28.9187 14.4945C29.6907 17.235 28.6985 19.7126 27.6355 22.2053C27.5751 22.3499 27.5147 22.4944 27.4525 22.6433C27.0781 23.4875 26.7393 24.0053 25.944 24.5267C24.7585 24.0369 23.5769 23.5385 22.3977 23.0336C22.1079 22.9109 22.1079 22.9109 21.8123 22.7857C20.0757 21.9915 18.5493 20.6726 17.7316 18.9273C17.6724 18.803 17.6132 18.6786 17.5522 18.5504C16.7557 16.4641 16.8704 13.6137 17.6936 11.5643C17.7677 11.4072 17.8419 11.2501 17.9182 11.0882C17.9923 10.9292 18.0664 10.7701 18.1428 10.6063C19.1385 8.65584 20.41 8.2414 22.491 8.88343Z" fill="#27D33C"/>
<path d="M57.1132 8.66139C58.575 9.53192 59.0589 11.6099 59.5396 13.1409C60.0582 15.2527 59.7381 17.5099 58.758 19.4402C57.5871 21.346 55.9102 22.2944 53.9402 23.2198C53.7998 23.2863 53.6594 23.3528 53.5148 23.4212C53.0873 23.6203 52.6574 23.8122 52.2254 24.0014C52.0913 24.0627 51.9572 24.1239 51.819 24.187C50.8988 24.573 50.8988 24.573 50.3495 24.3783C49.8608 23.7661 49.5759 23.0992 49.2741 22.3799C49.2092 22.2274 49.1444 22.0748 49.0776 21.9176C48.9498 21.6152 48.8231 21.3124 48.6974 21.0091C48.5614 20.687 48.4149 20.3693 48.265 20.0534C47.4761 18.2698 47.4077 15.782 48.0842 13.9458C48.4906 13.12 49.002 12.3079 49.6474 11.6477C49.7705 11.6477 49.8937 11.6477 50.0206 11.6477C50.0822 11.463 50.1438 11.2782 50.2073 11.0878C51.8674 9.56417 54.8324 8.06191 57.1132 8.66139Z" fill="#710FD8"/>
<path d="M13.998 40.7647C15.3442 42.1253 16.0423 43.8902 16.7977 45.6175C16.8836 45.8091 16.9695 46.0006 17.058 46.1979C17.4252 47.0544 17.5767 47.6591 17.5443 48.6039C10.4872 51.2983 10.4872 51.2983 7.39391 49.9811C4.73535 48.5804 2.93294 46.3455 1.86597 43.5644C1.64656 42.6495 1.50061 41.8927 1.90825 41.0228C2.97746 39.5862 5.24105 38.8152 6.96375 38.56C9.71298 38.3629 11.9635 38.8636 13.998 40.7647Z" fill="#27D33C"/>
<path d="M68.7013 38.5328C70.83 38.6262 72.8232 39.1776 74.472 40.5779C75.07 41.2464 75.1185 41.6822 75.0844 42.553C74.8097 44.915 73.3315 47.1292 71.5629 48.646C69.493 50.1666 67.296 50.7163 64.7664 50.4702C63.2547 50.1718 61.8579 49.6418 60.4735 48.977C60.2213 48.8668 59.9686 48.7578 59.7153 48.6504C59.4439 48.5349 59.4439 48.5349 59.167 48.417C59.2636 47.4272 59.5175 46.6393 59.9602 45.7457C60.0189 45.6241 60.0776 45.5025 60.138 45.3772C60.3104 45.0209 60.4852 44.6659 60.6602 44.3108C60.7485 44.127 60.8368 43.9432 60.9277 43.7538C62.1614 41.2174 63.6381 39.7518 66.2596 38.7114C67.0861 38.4963 67.8532 38.521 68.7013 38.5328Z" fill="#710FD8"/>
<path d="M25.1852 28.6562C25.3981 28.721 25.3981 28.721 25.6153 28.7871C27.5743 29.3962 29.2439 30.0591 30.7962 31.4326C31.0561 31.652 31.0561 31.652 31.3212 31.8758C31.8767 32.5425 32.1782 33.2354 32.476 34.0456C32.5208 34.1671 32.5655 34.2886 32.6117 34.4138C33.1494 36.1597 32.6261 37.8363 32.1261 39.5283C32.0543 39.7715 32.0543 39.7715 31.981 40.0196C31.4853 41.6243 31.4853 41.6243 30.9829 42.2581C30.1469 42.6779 29.21 42.2185 28.3735 41.9671C27.5602 41.6905 26.7933 41.3343 26.0251 40.9515C25.9007 40.8896 25.7764 40.8276 25.6483 40.7638C23.9916 39.9071 22.9495 38.7426 22.2309 37.0028C21.5495 34.4718 21.9632 31.1998 22.9346 28.7847C23.4723 27.9144 24.3944 28.4124 25.1852 28.6562Z" fill="#27D33C"/>
<path d="M53.7542 28.6329C53.9623 29.124 54.1174 29.5687 54.2559 30.0794C54.2956 30.2217 54.3353 30.3641 54.3762 30.5108C55.0301 32.9804 55.1885 35.6111 53.9992 37.9419C52.5067 40.3915 49.7756 41.7345 47.035 42.4447C46.5776 42.4928 46.1885 42.4856 45.7284 42.4447C44.6006 39.937 43.3789 36.727 44.2586 33.9873C44.6256 33.171 45.1518 32.4849 45.7284 31.8058C45.8223 31.692 45.9161 31.5782 46.0128 31.461C47.3962 29.9258 49.3178 29.3265 51.2345 28.7262C51.3975 28.674 51.5604 28.6217 51.7283 28.5679C51.8829 28.522 52.0376 28.476 52.1969 28.4287C52.3351 28.387 52.4734 28.3452 52.6158 28.3022C53.1196 28.2474 53.3414 28.3445 53.7542 28.6329Z" fill="#710FD8"/>
<path d="M23.3926 56.5176C23.1522 56.5197 22.9118 56.5217 22.6641 56.5239C22.5311 56.5237 22.3981 56.5236 22.2611 56.5234C21.8226 56.5241 21.3845 56.5313 20.9462 56.5387C20.6418 56.5404 20.3374 56.5417 20.0329 56.5427C19.2326 56.5462 18.4325 56.5554 17.6322 56.5657C16.8153 56.5753 15.9983 56.5795 15.1813 56.5842C13.5789 56.5942 11.9767 56.6102 10.3744 56.6298C10.329 58.1715 11.3541 59.5795 12.2883 60.7659C13.9301 62.4959 16.2033 63.4776 18.5562 63.5868C21.2368 63.6558 24.0972 63.499 26.2394 61.6693C26.4021 60.6447 26.0027 59.9243 25.5394 59.0445C25.4745 58.915 25.4095 58.7854 25.3426 58.6519C24.3376 56.6923 24.3376 56.6923 23.3926 56.5176Z" fill="#27D33C"/>
<path d="M21.4096 51.2288C21.2215 51.2348 21.0333 51.2408 20.8395 51.247C20.2234 51.4155 20.1331 51.5221 19.7189 51.9674C18.7305 52.8804 17.3906 52.6619 16.1252 52.6403C15.6207 52.6344 15.117 52.634 14.6123 52.6359C14.39 52.6327 14.1676 52.6295 13.9385 52.6262C13.2404 52.7278 13.0421 52.9091 12.6139 53.4569C12.203 54.1613 12.054 54.4965 12.054 55.3234C12.5388 55.5657 12.8828 55.5285 13.4255 55.5223C13.6343 55.5205 13.843 55.5187 14.0581 55.5168C14.2848 55.5141 14.5115 55.5113 14.745 55.5085C15.2227 55.5053 15.7004 55.5021 16.1781 55.4991C16.9329 55.4935 17.6878 55.4869 18.4427 55.478C19.1699 55.4701 19.8971 55.4657 20.6244 55.4619C20.9616 55.4567 20.9616 55.4567 21.3056 55.4514C22.4733 55.4478 23.3509 55.4816 24.3726 56.0699C25.3277 57.0663 25.9268 58.3424 26.4258 59.6162C26.5027 59.8049 26.5797 59.9935 26.6591 60.1878C26.7284 60.3668 26.7284 60.3668 26.799 60.5495C27.3498 60.609 27.6279 60.6322 28.0706 60.2812C28.5188 59.314 28.4121 58.5012 28.0997 57.5157C27.8117 56.774 27.501 56.0479 27.1723 55.3234C27.1024 55.1692 27.0325 55.015 26.9605 54.8561C26.7378 54.3692 26.5127 53.8835 26.2858 53.3986C26.2132 53.2435 26.1407 53.0885 26.066 52.9288C25.9626 52.712 25.9626 52.712 25.8571 52.4909C25.7651 52.2977 25.7651 52.2977 25.6713 52.1006C25.4925 51.7771 25.4925 51.7771 25.1192 51.4038C23.9031 51.1922 22.6408 51.1889 21.4096 51.2288Z" fill="#27D33C"/>
<path d="M14.7177 30.2236C14.5204 30.0864 14.323 29.9492 14.1196 29.8078C14.0111 29.7308 13.9027 29.6539 13.7909 29.5746C13.4327 29.3217 13.071 29.0745 12.709 28.8271C12.4596 28.6526 12.2104 28.4778 11.9614 28.3027C11.3062 27.8431 10.6479 27.3882 9.98878 26.9341C9.31653 26.4698 8.64731 26.0012 7.97783 25.5329C6.66432 24.6151 5.3475 23.7022 4.0285 22.7923C3.1005 24.0243 3.12353 25.7657 3.20026 27.2739C3.54047 29.6345 4.82837 31.7493 6.68558 33.1981C8.83338 34.8035 11.2584 36.3285 14.064 36.0731C14.7889 35.331 14.8793 34.5123 15.0096 33.5266C15.0314 33.3833 15.0533 33.24 15.0758 33.0924C15.3881 30.9124 15.3881 30.9124 14.7177 30.2236Z" fill="#27D33C"/>
<path d="M16.1558 24.7613C15.9988 24.6575 15.8417 24.5537 15.6799 24.4467C15.0798 24.2283 14.9444 24.2631 14.3491 24.3871C13.0148 24.5611 12.0476 23.6084 11.0274 22.8596C10.619 22.5632 10.2082 22.2717 9.79521 21.9817C9.6156 21.8506 9.43599 21.7195 9.25093 21.5844C8.62245 21.2639 8.35585 21.2972 7.68984 21.4969C6.94741 21.8343 6.63209 22.0217 6.15426 22.6966C6.40983 23.1745 6.71216 23.343 7.15865 23.6515C7.33007 23.7707 7.50149 23.8898 7.6781 24.0126C7.86468 24.1414 8.05125 24.2701 8.24348 24.4028C8.63521 24.6762 9.02688 24.9496 9.41848 25.2232C10.0378 25.6549 10.6577 26.0857 11.2788 26.5147C11.8769 26.9285 12.4729 27.3452 13.0687 27.7623C13.3469 27.9529 13.3469 27.9529 13.6308 28.1474C14.5858 28.8192 15.2825 29.354 15.7764 30.4246C15.98 31.7897 15.7315 33.1773 15.4026 34.5052C15.3565 34.7037 15.3103 34.9021 15.2627 35.1066C15.2158 35.2927 15.2158 35.2927 15.168 35.4826C15.583 35.8494 15.7966 36.0291 16.3607 35.9984C17.2855 35.4681 17.668 34.7431 17.9826 33.7583C18.1762 32.9865 18.3423 32.2144 18.4927 31.4332C18.5247 31.2669 18.5568 31.1007 18.5898 30.9294C18.6895 30.4033 18.7863 29.8769 18.8814 29.35C18.9118 29.1815 18.9422 29.0131 18.9736 28.8395C19.0144 28.6029 19.0144 28.6029 19.0561 28.3614C19.0927 28.1506 19.0927 28.1506 19.1301 27.9356C19.1711 27.5682 19.1711 27.5682 19.0821 27.0479C18.2119 26.1724 17.1837 25.4402 16.1558 24.7613Z" fill="#27D33C"/>
<path d="M55.9266 56.4768C56.2133 56.4791 56.5 56.4808 56.7867 56.4819C57.5388 56.4865 58.2906 56.5002 59.0426 56.5158C59.6585 56.527 60.2744 56.5319 60.8904 56.5365C62.1602 56.5459 63.43 56.5594 64.6996 56.5843C65.037 56.5904 65.037 56.5904 65.3814 56.5967C65.8852 56.6292 65.8852 56.6292 66.0718 56.8158C66.1311 57.2303 66.1752 57.6469 66.2118 58.064C66.234 58.2919 66.2561 58.5197 66.2789 58.7545C66.2514 59.6643 65.9768 60.2293 65.3828 60.9111C64.439 61.7288 63.4914 62.3083 62.3389 62.7885C62.0877 62.8989 62.0877 62.8989 61.8315 63.0116C59.4532 63.9066 56.2333 64.0005 53.8735 63.0262C53.7106 62.9478 53.5477 62.8693 53.3799 62.7885C53.1804 62.6985 52.981 62.6085 52.7755 62.5158C50.9728 61.6652 50.9728 61.6652 50.3935 60.922C50.2741 60.3081 50.342 60.0689 50.6808 59.5419C50.8093 59.3929 50.9377 59.244 51.0701 59.0906C51.6285 58.4597 51.6285 58.4597 52.0716 57.7502C52.9282 56.2012 54.362 56.4353 55.9266 56.4768Z" fill="#710FD8"/>
<path d="M51.7 51.4032C52.4893 51.376 53.2784 51.3595 54.068 51.3449C54.4035 51.3331 54.4035 51.3331 54.7457 51.3212C56.418 51.2979 56.418 51.2979 57.1397 51.8618C57.3111 52.0967 57.3111 52.0967 57.486 52.3364C58.1257 52.5497 58.6248 52.5466 59.2992 52.5493C59.5492 52.5527 59.7992 52.5564 60.0491 52.5603C60.442 52.5657 60.8346 52.5697 61.2275 52.5698C61.6076 52.5704 61.9872 52.5769 62.3673 52.5843C62.7079 52.5869 62.7079 52.5869 63.0555 52.5896C63.6453 52.7097 63.6453 52.7097 64.0781 53.1477C64.9519 54.5266 64.9519 54.5266 64.9519 55.3228C64.4669 55.5652 64.1203 55.5292 63.5774 55.5247C63.368 55.5235 63.1586 55.5222 62.9429 55.521C62.7157 55.5189 62.4884 55.5167 62.2542 55.5145C61.7757 55.5122 61.2972 55.5098 60.8187 55.5076C60.0621 55.5032 59.3056 55.4978 58.5491 55.4915C57.8205 55.4855 57.0919 55.4825 56.3632 55.4795C56.1375 55.477 55.9117 55.4745 55.6791 55.4719C55.4674 55.4713 55.2557 55.4706 55.0375 55.47C54.8522 55.4686 54.6668 55.4672 54.4758 55.4658C53.6498 55.533 53.015 55.7276 52.3649 56.2443C51.5922 57.1678 50.8853 58.198 50.3854 59.297C50.2068 59.6156 50.2068 59.6156 49.7168 59.7556C49.5706 59.771 49.4243 59.7864 49.2736 59.8023C48.6973 58.9379 48.7509 58.2024 48.9003 57.1892C49.5003 55.1245 50.5867 53.2279 51.7 51.4032Z" fill="#710FD8"/>
<path d="M37.8077 11.4634C37.8656 11.1826 37.9228 10.9017 37.9794 10.6206C38.1298 9.8836 38.289 9.14876 38.45 8.41401C38.5804 7.81196 38.7046 7.20872 38.8285 6.6053C39.0839 5.36143 39.3433 4.11835 39.6138 2.87766C39.6852 2.54776 39.6852 2.54776 39.7581 2.21119C39.8876 1.72322 39.8876 1.72322 40.1069 1.57629C40.525 1.59846 40.9423 1.63598 41.3586 1.68091C41.5864 1.70336 41.8142 1.72581 42.0489 1.74894C42.9362 1.95233 43.4372 2.33115 43.991 3.04604C44.6102 4.13049 44.995 5.17243 45.2427 6.39616C45.3024 6.66399 45.3024 6.66399 45.3632 6.93723C45.7802 9.44391 45.2482 12.6209 43.8349 14.7471C43.7264 14.8917 43.6179 15.0363 43.5061 15.1853C43.3792 15.3635 43.2522 15.5417 43.1214 15.7254C41.9375 17.329 41.9375 17.329 41.0962 17.7532C40.4707 17.7514 40.2492 17.6383 39.7979 17.2038C39.6767 17.0489 39.5555 16.894 39.4306 16.7344C38.9199 16.0644 38.9199 16.0644 38.3097 15.4921C36.9562 14.3515 37.4638 12.9903 37.8077 11.4634Z" fill="#27D33C"/>
<path d="M32.0108 14.6262C32.1372 13.8466 32.2739 13.0692 32.4126 12.2918C32.4662 11.9604 32.4662 11.9604 32.5208 11.6223C32.8221 9.97727 32.8221 9.97727 33.5152 9.37857C33.7789 9.25594 33.7789 9.25594 34.0479 9.13082C34.3811 8.54457 34.4749 8.05435 34.6083 7.39324C34.6601 7.14869 34.7121 6.90418 34.7644 6.65972C34.8458 6.27538 34.9259 5.89098 35.0022 5.50558C35.0764 5.1328 35.1564 4.7616 35.2373 4.39021C35.3059 4.05652 35.3059 4.05652 35.3759 3.71608C35.6081 3.16067 35.6081 3.16067 36.1217 2.82102C37.6437 2.2311 37.6437 2.2311 38.4248 2.38544C38.5687 2.90819 38.4662 3.24126 38.3565 3.77302C38.3147 3.97817 38.2729 4.18332 38.2299 4.39468C38.1837 4.61723 38.1376 4.83978 38.09 5.06907C37.995 5.53806 37.8999 6.00706 37.805 6.47607C37.654 7.21739 37.5021 7.95853 37.3493 8.69947C37.2021 9.41312 37.058 10.1273 36.9138 10.8416C36.8676 11.0626 36.8213 11.2836 36.7737 11.5113C36.732 11.7188 36.6904 11.9264 36.6475 12.1403C36.6102 12.3219 36.5729 12.5035 36.5344 12.6906C36.4403 13.5139 36.5081 14.1744 36.8891 14.9123C37.6452 15.8493 38.5189 16.7425 39.5001 17.446C39.7781 17.683 39.7781 17.683 39.8204 18.1908C39.8072 18.3373 39.7939 18.4838 39.7803 18.6347C38.8206 19.0325 38.1095 18.8373 37.1444 18.4944C35.2352 17.5055 33.5851 16.0721 32.0108 14.6262Z" fill="#27D33C"/>
<path d="M63.561 30.0904C63.7651 29.889 63.9687 29.6872 64.1719 29.4849C64.7062 28.9555 65.2467 28.4328 65.7887 27.9112C66.2315 27.483 66.6698 27.0503 67.1079 26.6173C68.0111 25.7247 68.9172 24.835 69.8312 23.9535C70.0738 23.7188 70.0738 23.7188 70.3213 23.4794C70.7001 23.1455 70.7001 23.1455 70.964 23.1451C71.2994 23.3957 71.6256 23.6587 71.9468 23.9273C72.1238 24.0724 72.3008 24.2176 72.4831 24.3672C73.108 25.0291 73.3143 25.6224 73.3778 26.5245C73.2905 27.7702 73.0318 28.8504 72.5582 30.0056C72.459 30.2615 72.459 30.2615 72.3579 30.5225C71.3126 32.8387 69.1057 35.1852 66.7496 36.1685C66.5791 36.2284 66.4085 36.2884 66.2328 36.3502C66.0283 36.4279 65.8237 36.5056 65.613 36.5857C63.7378 37.2618 63.7378 37.2618 62.8026 37.1473C62.2834 36.7984 62.162 36.5814 62.028 35.9694C62.0132 35.7733 61.9985 35.5771 61.9833 35.3751C61.9307 34.5343 61.9307 34.5343 61.7411 33.7195C61.2489 32.0193 62.427 31.1691 63.561 30.0904Z" fill="#710FD8"/>
<path d="M56.9841 29.5011C57.5222 28.9229 58.0676 28.3524 58.6148 27.7829C58.8433 27.537 58.8433 27.537 59.0765 27.2862C60.2406 26.0855 60.2406 26.0855 61.1495 25.9726C61.4369 26.017 61.4369 26.017 61.7302 26.0624C62.3328 25.7599 62.6831 25.4043 63.1611 24.9286C63.34 24.754 63.5191 24.5796 63.6983 24.4053C63.9795 24.1309 64.2596 23.8557 64.537 23.5776C64.8059 23.3088 65.0785 23.0445 65.352 22.7806C65.5944 22.5412 65.5944 22.5412 65.8417 22.297C66.3432 21.9641 66.3432 21.9641 66.9589 21.9668C68.5523 22.3216 68.5523 22.3216 69.1162 22.8837C68.9455 23.3983 68.6753 23.6184 68.2887 23.9997C68.14 24.1471 67.9914 24.2945 67.8382 24.4463C67.6762 24.6058 67.5142 24.7652 67.3474 24.9295C67.0078 25.2667 66.6683 25.604 66.3289 25.9412C65.7916 26.4739 65.2537 27.0059 64.7151 27.5371C64.1964 28.0489 63.6799 28.5628 63.1633 29.0767C63.0021 29.2348 62.841 29.3929 62.6749 29.5558C62.525 29.7053 62.3751 29.8548 62.2206 30.0088C62.0887 30.1391 61.9569 30.2694 61.821 30.4036C61.2854 31.036 60.975 31.623 60.882 32.4482C60.9904 33.6473 61.2209 34.8753 61.6463 36.0053C61.7458 36.3568 61.7458 36.3568 61.499 36.8026C61.4066 36.917 61.3142 37.0315 61.2191 37.1494C60.2001 36.9472 59.7171 36.39 59.105 35.5689C58.0664 33.6862 57.4903 31.5778 56.9841 29.5011Z" fill="#710FD8"/>
</svg>
