<svg width="271" height="58" viewBox="0 0 271 58" fill="none" xmlns="http://www.w3.org/2000/svg">
<path d="M28.7961 16.044H0C0 7.18305 7.18305 0 16.044 0H28.7961V16.044Z" fill="#710FD8"/>
<path d="M57.5832 16.044H33.0938C33.0938 7.18305 40.2768 0 49.1377 0H57.5912V16.044H57.5832Z" fill="#25D838"/>
<path d="M41.5472 36.7779H33.0938V20.7339H57.5832C57.5832 29.5948 50.4002 36.7779 41.5472 36.7779Z" fill="#25D838"/>
<path d="M41.5492 57.504H20.4795V41.46H57.5852C57.5852 50.3289 50.4022 57.504 41.5492 57.504Z" fill="#710FD8"/>
<path d="M28.7961 20.7339H0V32.0398V36.7699V42.2271C0 50.6646 6.83947 57.504 15.277 57.504H16.044V36.7699H28.7961V20.7339V20.7339Z" fill="#710FD8"/>
<path d="M110.607 58H104.84L113.627 32.5454H120.563L129.338 58H123.571L117.195 38.3622H116.996L110.607 58ZM110.247 47.9946H123.869V52.1956H110.247V47.9946Z" fill="#303434"/>
<path d="M88.3207 32.5454L94.473 51.8849H94.7091L100.874 32.5454H106.84L98.065 58H91.1296L82.3423 32.5454H88.3207Z" fill="#303434"/>
<path d="M79.5941 32.5454V58H74.2124V32.5454H79.5941Z" fill="#303434"/>
<path d="M246.551 0.54541H252.579L258.384 11.5078H258.632L264.437 0.54541H270.465L261.18 17.0014V26H255.836V17.0014L246.551 0.54541Z" fill="#303434"/>
<path d="M226.434 26V0.54541H236.476C238.399 0.54541 240.039 0.889279 241.398 1.57702C242.765 2.25647 243.805 3.22178 244.518 4.47297C245.239 5.71586 245.599 7.17834 245.599 8.8604C245.599 10.5507 245.235 12.0049 244.505 13.223C243.776 14.4327 242.72 15.3608 241.336 16.0071C239.961 16.6534 238.295 16.9765 236.34 16.9765H229.615V12.6512H235.47C236.497 12.6512 237.35 12.5104 238.03 12.2286C238.709 11.9469 239.215 11.5243 239.546 10.9609C239.886 10.3974 240.056 9.69728 240.056 8.8604C240.056 8.01523 239.886 7.30263 239.546 6.72261C239.215 6.14259 238.705 5.70343 238.017 5.40514C237.338 5.09856 236.48 4.94527 235.445 4.94527H231.815V26H226.434ZM240.18 14.4161L246.506 26H240.565L234.376 14.4161H240.18Z" fill="#303434"/>
<path d="M203.765 26V0.54541H213.808C215.73 0.54541 217.37 0.889279 218.729 1.57702C220.097 2.25647 221.136 3.22178 221.849 4.47297C222.57 5.71586 222.93 7.17834 222.93 8.8604C222.93 10.5507 222.566 12.0049 221.837 13.223C221.107 14.4327 220.051 15.3608 218.667 16.0071C217.292 16.6534 215.626 16.9765 213.671 16.9765H206.947V12.6512H212.801C213.828 12.6512 214.682 12.5104 215.361 12.2286C216.041 11.9469 216.546 11.5243 216.877 10.9609C217.217 10.3974 217.387 9.69728 217.387 8.8604C217.387 8.01523 217.217 7.30263 216.877 6.72261C216.546 6.14259 216.036 5.70343 215.349 5.40514C214.669 5.09856 213.812 4.94527 212.776 4.94527H209.147V26H203.765ZM217.511 14.4161L223.838 26H217.897L211.707 14.4161H217.511Z" fill="#303434"/>
<path d="M182.634 26V0.54541H199.786V4.98255H188.016V11.0479H198.904V15.485H188.016V21.5628H199.836V26H182.634Z" fill="#303434"/>
<path d="M159.795 26V0.54541H169.986C171.859 0.54541 173.421 0.822991 174.672 1.37815C175.923 1.93331 176.864 2.70391 177.493 3.68994C178.123 4.66769 178.438 5.79458 178.438 7.07062C178.438 8.06494 178.239 8.93911 177.841 9.69314C177.444 10.4389 176.897 11.052 176.201 11.5326C175.513 12.0049 174.726 12.3405 173.839 12.5394V12.788C174.809 12.8294 175.716 13.1028 176.561 13.6083C177.415 14.1137 178.107 14.8222 178.637 15.7336C179.167 16.6368 179.432 17.714 179.432 18.9652C179.432 20.3158 179.097 21.5214 178.426 22.582C177.763 23.6343 176.781 24.467 175.48 25.0802C174.179 25.6934 172.576 26 170.67 26H159.795ZM165.176 21.6001H169.564C171.064 21.6001 172.157 21.3142 172.845 20.7425C173.533 20.1625 173.877 19.3919 173.877 18.4307C173.877 17.7264 173.707 17.105 173.367 16.5664C173.027 16.0278 172.543 15.6052 171.913 15.2986C171.291 14.992 170.55 14.8387 169.688 14.8387H165.176V21.6001ZM165.176 11.197H169.166C169.903 11.197 170.558 11.0686 171.13 10.8117C171.71 10.5466 172.166 10.1737 172.497 9.69314C172.837 9.21255 173.007 8.63667 173.007 7.96551C173.007 7.04577 172.679 6.30417 172.025 5.74072C171.378 5.17728 170.459 4.89555 169.265 4.89555H165.176V11.197Z" fill="#303434"/>
<path d="M140.121 0.54541L145.254 9.22084H145.453L150.611 0.54541H156.689L148.921 13.2727L156.863 26H150.673L145.453 17.3121H145.254L140.034 26H133.869L141.836 13.2727L134.019 0.54541H140.121Z" fill="#303434"/>
<path d="M113.944 26V0.54541H131.096V4.98255H119.326V11.0479H130.214V15.485H119.326V21.5628H131.146V26H113.944Z" fill="#303434"/>
<path d="M94.386 26V0.54541H99.7677V21.5628H110.68V26H94.386Z" fill="#303434"/>
<path d="M74.2124 26V0.54541H91.066V4.98255H79.5941V11.0479H89.9474V15.485H79.5941V26H74.2124Z" fill="#303434"/>
</svg>
